<svg id="Capa_1" enable-background="new 0 0 512 512" height="512" viewBox="0 0 512 512" width="512" xmlns="http://www.w3.org/2000/svg"><g fill="#fbe7c5"><circle cx="136.221" cy="376.263" r="127.781"/><circle cx="409.596" cy="237.956" r="93.964"/><circle cx="201.641" cy="88.274" r="80.319"/></g><path d="m185.103 258.174c29.425 23.41 48.293 59.522 48.293 100.046 0 70.572-57.21 127.781-127.781 127.781-17.315 0-33.822-3.451-48.881-9.691 21.819 17.358 49.44 27.735 79.488 27.735 70.572 0 127.781-57.21 127.781-127.781 0-53.257-32.584-98.897-78.9-118.09z" fill="#fdd8a3"/><path d="m441.1 149.411c19.529 17.218 31.853 42.419 31.853 70.502 0 51.895-42.069 93.964-93.964 93.964-11.052 0-21.655-1.914-31.504-5.419 16.56 14.6 38.299 23.462 62.111 23.462 51.895 0 93.964-42.069 93.964-93.964 0-40.843-26.062-75.593-62.46-88.545z" fill="#fdd8a3"/><path d="m226.054 11.746c15.565 14.649 25.299 35.424 25.299 58.485 0 44.359-35.96 80.319-80.319 80.319-8.514 0-16.713-1.336-24.413-3.79 14.375 13.529 33.722 21.834 55.02 21.834 44.359 0 80.319-35.96 80.319-80.319-.001-35.846-23.487-66.196-55.906-76.529z" fill="#fdd8a3"/><path d="m195.213 334.169c-.02-1.236-.126-2.491-.325-3.761-1.916-12.227-12.274-21.639-24.626-22.417-1.609-.101-3.189-.058-4.729.117-3.949.448-7.837-.892-10.68-3.669-4.807-4.697-11.382-7.591-18.633-7.591s-13.826 2.895-18.633 7.591c-2.843 2.778-6.731 4.118-10.68 3.669-1.539-.175-3.119-.218-4.727-.117-12.351.778-22.71 10.189-24.627 22.415-.199 1.271-.305 2.526-.325 3.762-.059 3.627-1.776 7.044-4.553 9.378-6.409 5.384-10.248 13.725-9.406 22.926 1.163 12.704 11.455 22.945 24.165 24.048 6.42.557 12.419-1.163 17.279-4.442h63.015c4.86 3.28 10.859 5 17.279 4.442 12.71-1.103 23.002-11.344 24.165-24.048.842-9.202-2.998-17.544-9.407-22.927-2.777-2.333-4.493-5.75-4.552-9.376z" fill="#fba615"/><path d="m199.765 343.545c-2.777-2.332-4.493-5.749-4.552-9.375-.02-1.236-.126-2.491-.325-3.761-1.916-12.227-12.274-21.639-24.626-22.417-1.609-.101-3.189-.058-4.729.117-1.599.182-3.185.056-4.699-.326 4.801 4.409 8.169 10.378 9.225 17.118.221 1.411.339 2.805.361 4.177.065 4.027 1.971 7.822 5.055 10.412 7.119 5.979 11.383 15.244 10.448 25.463-.899 9.83-6.723 18.326-14.945 22.994 4.182 2.035 8.973 3.013 14.029 2.574 12.71-1.103 23.002-11.344 24.165-24.048.843-9.203-2.997-17.545-9.407-22.928z" fill="#fa9801"/><path d="m191.353 383.275c-.363-.027-.705-.015-1.052-.013-.542-21.86-18.42-39.418-40.411-39.418h-27.724c-21.997 0-39.879 17.567-40.411 39.436-.579-.042-1.177-.052-1.807-.006-8.855.652-15.703 5.664-14.929 16.17.772 10.489 8.851 22.488 17.69 21.876 4.794 25.086 26.836 44.05 53.32 44.05 26.475 0 48.513-18.953 53.316-44.028 8.541-.091 16.188-11.706 16.939-21.898.773-10.504-6.076-15.516-14.931-16.169z" fill="#fcb143"/><path d="m191.353 383.275c-.362-.027-.703-.015-1.049-.013-.476-19.202-14.331-35.078-32.599-38.656 7.773 7.369 12.628 17.785 12.628 29.341v26.791c0 29.988-24.31 54.299-54.299 54.299-4.983 0-9.804-.685-14.388-1.942 9.363 7.67 21.334 12.276 34.382 12.276 26.475 0 48.513-18.953 53.316-44.028 8.541-.091 16.188-11.706 16.939-21.898.774-10.505-6.075-15.517-14.93-16.17z" fill="#fba615"/><path d="m454.174 227.517c-.281-.021-.553-.026-.821-.025v-3.4c0-23.999-19.455-43.454-43.454-43.454-23.999 0-43.454 19.455-43.454 43.454v3.422c-.456-.032-.93-.034-1.426.003-7.086.522-12.567 4.533-11.948 12.941.608 8.259 6.877 17.681 13.815 17.517 2.99 21.084 21.103 37.301 43.013 37.301 21.913 0 40.028-16.222 43.014-37.311 6.694-.376 12.619-9.489 13.209-17.507.619-8.408-4.862-12.419-11.948-12.941z" fill="#fcb143"/><path d="m454.174 227.517c-.281-.021-.553-.026-.821-.025v-3.4c0-23.324-18.377-42.351-41.441-43.403 15.871 8.724 26.63 25.596 26.63 44.985v12.029c0 28.279-22.88 51.209-51.137 51.3 6.561 3.98 14.259 6.272 22.494 6.272 21.913 0 40.028-16.222 43.014-37.311 6.694-.376 12.619-9.489 13.209-17.507.619-8.407-4.862-12.418-11.948-12.94z" fill="#fba615"/><path d="m233.315 80.856c-.2-.015-.393-.019-.583-.018v-2.416c0-17.052-13.824-30.876-30.876-30.876-17.053 0-30.876 13.824-30.876 30.876v2.431c-.324-.022-.661-.024-1.013.002-5.035.371-8.929 3.221-8.489 9.195.432 5.868 4.886 12.563 9.816 12.446 2.125 14.981 14.995 26.504 30.562 26.504 15.57 0 28.442-11.527 30.563-26.511 4.756-.267 8.966-6.743 9.386-12.439.439-5.973-3.455-8.823-8.49-9.194z" fill="#fcb143"/><path d="m233.315 80.856c-.2-.015-.393-.019-.583-.018v-2.416c0-16.573-13.058-30.092-29.446-30.84 11.277 6.199 18.922 18.187 18.922 31.964v8.547c0 20.093-16.257 36.387-36.335 36.451 4.662 2.828 10.132 4.456 15.983 4.456 15.57 0 28.442-11.527 30.563-26.511 4.756-.267 8.966-6.743 9.386-12.439.439-5.973-3.455-8.823-8.49-9.194z" fill="#fba615"/><path d="m409.87 136.28c-25.811 0-50.418 9.686-69.288 27.275-3.066 2.858-5.915 5.897-8.578 9.066l-54.949-39.552c7.91-13.195 12.465-28.622 12.465-45.094 0-32.721-17.988-62.548-46.946-77.84-3.668-1.939-8.214-.534-10.152 3.135s-.534 8.215 3.135 10.152c24.016 12.683 38.935 37.418 38.935 64.552 0 40.224-32.725 72.949-72.949 72.949s-72.948-32.725-72.948-72.949 32.724-72.949 72.948-72.949c1.125 0 2.261.026 3.378.077 4.152.185 7.659-3.018 7.848-7.163s-3.018-7.659-7.163-7.848c-1.344-.06-2.711-.091-4.063-.091-48.509 0-87.975 39.466-87.975 87.975s39.466 87.975 87.975 87.975c26.652 0 50.572-11.915 66.719-30.696l54.943 39.547c-8.387 13.654-13.477 29.172-14.694 45.441-.309 4.138 2.794 7.744 6.932 8.053 4.155.307 7.744-2.794 8.053-6.932 3.358-44.893 41.297-80.058 86.373-80.058 47.762 0 86.618 38.857 86.618 86.618s-38.856 86.618-86.618 86.618c-38.397 0-71.702-24.653-82.875-61.345-1.209-3.97-5.409-6.207-9.376-4.999-3.97 1.209-6.207 5.407-4.999 9.376 1.294 4.248 2.891 8.399 4.739 12.438l-61.333 33.582c-22.698-43.145-67.975-72.637-120.019-72.637-74.728 0-135.522 60.795-135.522 135.522 0 23.464 6.094 46.588 17.623 66.874 2.051 3.607 6.638 4.871 10.245 2.819 3.607-2.051 4.87-6.637 2.819-10.245-10.246-18.026-15.661-38.583-15.661-59.449 0-66.441 54.054-120.496 120.496-120.496s120.496 54.054 120.496 120.496-54.054 120.495-120.496 120.495c-32.08 0-62.268-12.463-85.005-35.094-2.942-2.928-7.699-2.917-10.625.024-2.927 2.941-2.916 7.698.024 10.625 25.574 25.455 59.527 39.473 95.608 39.473 74.728 0 135.522-60.795 135.522-135.522 0-17.34-3.278-33.929-9.24-49.183l62.302-34.112c6.478 9.97 14.685 18.838 24.223 26.014 17.716 13.328 38.828 20.373 61.055 20.373 56.047 0 101.645-45.598 101.645-101.645s-45.598-101.645-101.645-101.645z"/><path d="m204.498 337.948c-1.155-.97-1.858-2.377-1.88-3.759-.025-1.597-.165-3.216-.416-4.812-2.458-15.684-15.756-27.793-31.621-28.792-2.021-.127-4.06-.076-6.057.15-1.69.193-3.372-.384-4.6-1.584-6.43-6.284-14.924-9.744-23.917-9.744s-17.486 3.461-23.918 9.745c-1.227 1.199-2.905 1.777-4.599 1.584-1.996-.227-4.033-.277-6.056-.15-15.863.998-29.161 13.106-31.622 28.79-.249 1.588-.389 3.206-.416 4.811-.022 1.385-.726 2.793-1.881 3.763-8.584 7.211-13.098 18.203-12.072 29.404.56 6.12 2.767 11.899 6.339 16.821-2.683 3.274-5.162 8.425-4.598 16.078.879 11.928 8.744 24.55 19.066 27.989 7.454 26.38 31.701 45.017 59.563 45.017 27.958 0 52.283-18.769 59.641-45.299 10.067-3.851 17.395-16.356 18.231-27.706.447-6.062-1.003-11.299-3.992-15.352 3.891-5.069 6.288-11.11 6.876-17.547 1.028-11.203-3.486-22.196-12.071-29.407zm-127.316 11.506c4.508-3.788 7.147-9.264 7.24-15.022.015-.908.095-1.827.236-2.729 1.377-8.781 8.83-15.561 17.719-16.12 1.147-.072 2.295-.044 3.418.084 6.198.705 12.326-1.398 16.796-5.768 3.607-3.524 8.371-5.465 13.415-5.465s9.808 1.941 13.415 5.466c4.473 4.37 10.597 6.475 16.796 5.767 1.123-.128 2.271-.156 3.418-.084 8.891.56 16.343 7.34 17.719 16.122.142.908.221 1.824.236 2.725.093 5.761 2.731 11.237 7.24 15.024 4.891 4.108 7.36 10.132 6.774 16.53-.36 3.942-1.963 7.619-4.547 10.621-1.653-10.016-6.426-19.229-13.807-26.444-9.02-8.816-20.936-13.672-33.551-13.672h-27.774c-12.619 0-24.538 4.858-33.559 13.679-7.285 7.124-12.024 16.194-13.734 26.059-2.397-2.934-3.882-6.474-4.227-10.242-.582-6.398 1.887-12.422 6.777-16.531zm121.519 49.696c-.584 7.928-6.369 14.942-9.556 14.975-3.574.038-6.627 2.589-7.299 6.1-4.217 22.023-23.577 38.007-46.031 38.007-22.464 0-41.825-15.992-46.035-38.026-.681-3.562-3.797-6.103-7.374-6.103-.174 0-.349.006-.524.018-.046.003-.092.004-.139.004-3.179 0-8.999-7.217-9.571-14.976-.295-4.013 1.136-5.405 1.606-5.863 1.304-1.268 3.581-2.082 6.408-2.29.21-.015.438-.014.721.007 2.06.147 4.069-.552 5.589-1.933s2.41-3.324 2.459-5.378c.432-17.742 15.224-32.176 32.973-32.176h27.774c18.041 0 32.524 14.127 32.971 32.161.102 4.079 3.438 7.327 7.51 7.327h.065l.218-.002c.085 0 .167-.004.256-.002 8.532.641 8.158 5.711 7.979 8.15z"/><circle cx="112.731" cy="392.671" r="7.305"/><circle cx="158.89" cy="392.671" r="7.305"/><path d="m152.252 420.284h-32.488c-1.707 0-2.888 1.718-2.27 3.31 2.88 7.413 10.082 12.669 18.514 12.669s15.634-5.256 18.514-12.669c.618-1.592-.563-3.31-2.27-3.31z"/><path d="m360.649 264.176c5.592 22.382 26.027 38.682 49.524 38.682 23.605 0 44.116-16.447 49.599-38.985 7.969-3.819 13.545-13.753 14.218-22.892.706-9.586-4.296-16.995-12.851-19.832-1.503-26.808-23.787-48.159-50.966-48.159-27.112 0-49.355 21.247-50.953 47.964-8.931 2.68-14.191 10.212-13.468 20.026.695 9.448 6.62 19.635 14.897 23.196zm5.109-29.217c.121-.008.24-.008.361 0 2.086.151 4.124-.581 5.647-2.001 1.523-1.421 2.388-3.411 2.388-5.494v-3.428c0-19.861 16.158-36.018 36.018-36.018 19.862 0 36.019 16.158 36.019 36.018v3.406c0 2 .797 3.917 2.215 5.327 1.409 1.4 3.314 2.186 5.298 2.186h.041c.073-.001.154-.001.232.004 5.358.396 5.165 3.01 5.026 4.918-.422 5.725-4.638 10.503-6.161 10.589-3.578.201-6.516 2.9-7.017 6.448-2.496 17.626-17.823 30.917-35.652 30.917-17.825 0-33.152-13.288-35.65-30.909-.526-3.712-3.706-6.458-7.436-6.458-.06 0-.12 0-.18.002-.005 0-.011 0-.016 0-1.521 0-5.741-4.988-6.154-10.589-.14-1.909-.333-4.523 5.021-4.918z"/><path d="m396.955 266.152c3.658 2.56 8.11 4.063 12.915 4.063 4.804 0 9.256-1.503 12.915-4.063 2.452-1.716 1.142-5.601-1.851-5.601h-22.128c-2.993.001-4.303 3.886-1.851 5.601z"/><path d="m163.499 74.323c-1.998.785-3.763 1.905-5.234 3.336-3.238 3.15-4.819 7.642-4.449 12.648.53 7.214 4.756 14.726 10.919 17.886 4.575 16.321 19.693 28.096 37.024 28.096 17.427 0 32.614-11.903 37.097-28.361 5.996-3.349 9.914-10.787 10.416-17.62.37-5.006-1.211-9.498-4.449-12.648-1.36-1.323-2.972-2.381-4.786-3.153-1.821-19.517-18.293-34.844-38.278-34.844-19.922-.001-36.353 15.231-38.26 34.66zm61.678 3.784v2.42c0 1.999.818 3.916 2.235 5.326 1.409 1.401 3.335 2.187 5.32 2.187h.027c.81.064 1.298.24 1.505.346.024.132.053.391.022.818-.181 2.454-1.79 4.941-2.702 5.541-3.407.36-6.162 2.994-6.647 6.419-1.622 11.458-11.587 20.098-23.179 20.098-11.589 0-21.553-8.638-23.178-20.093-.512-3.607-3.527-6.301-7.119-6.452-.918-.646-2.482-3.096-2.66-5.514-.031-.428-.003-.686.022-.817.207-.108.699-.287 1.485-.348 2.096.149 4.124-.581 5.646-2.002s2.387-3.41 2.387-5.493v-2.435c0-12.913 10.505-23.418 23.418-23.418s23.418 10.504 23.418 23.417z"/><circle cx="391.058" cy="237.95" r="7.145"/><circle cx="428.682" cy="237.95" r="7.145"/></svg>