<svg id="Capa_1" enable-background="new 0 0 512 512" height="512" viewBox="0 0 512 512" width="512" xmlns="http://www.w3.org/2000/svg"><g><g><path d="m431.768 41.846h52.528v135.362h-52.528z" fill="#cbe2ff"/></g><g><path d="m27.703 7.5h404.065v169.707h-404.065z" fill="#efecef"/></g><g><path d="m401.463 7.5h30.305v169.707h-30.305z" fill="#d3ced5"/></g><g><path d="m197.698 165.373-42.858-42.858c-3.789-3.789-8.928-5.917-14.286-5.917h-112.851c-11.158 0-20.203 9.045-20.203 20.203v347.496c0 11.158 9.045 20.203 20.203 20.203h456.594c11.158 0 20.203-9.045 20.203-20.203v-286.886c0-11.158-9.045-20.203-20.203-20.203h-258.028c-10.716-.001-20.994-4.258-28.571-11.835z" fill="#ffe07d"/></g><g><path d="m484.297 177.207h-27.274c11.158 0 20.203 9.045 20.203 20.203v286.886c0 11.158-9.045 20.203-20.203 20.203h27.274c11.158 0 20.203-9.045 20.203-20.203v-286.885c0-11.158-9.045-20.204-20.203-20.204z" fill="#ffd064"/></g><g><path d="m55.988 415.606h40.407v72.732h-40.407z" fill="#bed8fb" transform="matrix(0 1 -1 0 528.163 375.781)"/></g><g><path d="m491.797 170.747v-128.901c0-4.143-3.358-7.5-7.5-7.5h-45.029v-26.846c0-4.143-3.358-7.5-7.5-7.5h-344.759c-4.142 0-7.5 3.357-7.5 7.5s3.358 7.5 7.5 7.5h337.259v154.707h-86.866c-4.142 0-7.5 3.357-7.5 7.5s3.358 7.5 7.5 7.5h146.895c7.004 0 12.703 5.698 12.703 12.703v286.887c0 7.005-5.699 12.703-12.703 12.703h-318.801c-4.142 0-7.5 3.357-7.5 7.5s3.358 7.5 7.5 7.5h318.801c15.275 0 27.703-12.428 27.703-27.703v-286.887c0-12.676-8.561-23.383-20.203-26.663zm-52.529-121.401h37.529v120.361h-37.529z"/><path d="m226.27 184.707h76.016c4.142 0 7.5-3.357 7.5-7.5s-3.358-7.5-7.5-7.5h-76.016c-8.79 0-17.054-3.423-23.269-9.639l-42.858-42.857c-5.233-5.232-12.19-8.113-19.589-8.113h-105.351v-94.098h16.744c4.142 0 7.5-3.357 7.5-7.5s-3.358-7.5-7.5-7.5h-24.244c-4.142 0-7.5 3.357-7.5 7.5v102.638c-11.642 3.279-20.203 13.987-20.203 26.663v347.496c0 15.275 12.428 27.703 27.703 27.703h102.726c4.142 0 7.5-3.357 7.5-7.5s-3.358-7.5-7.5-7.5h-102.726c-7.004 0-12.703-5.698-12.703-12.703v-347.496c0-7.005 5.699-12.703 12.703-12.703h112.851c3.393 0 6.583 1.321 8.983 3.721l42.857 42.856c9.048 9.049 21.079 14.032 33.876 14.032z"/><path d="m332.772 47.325c4.142 0 7.5-3.357 7.5-7.5s-3.358-7.5-7.5-7.5h-206.073c-4.142 0-7.5 3.357-7.5 7.5s3.358 7.5 7.5 7.5z"/><path d="m81.242 82.344h296.988c4.142 0 7.5-3.357 7.5-7.5s-3.358-7.5-7.5-7.5h-296.988c-4.142 0-7.5 3.357-7.5 7.5s3.358 7.5 7.5 7.5z"/><path d="m378.229 102.363h-183.849c-4.142 0-7.5 3.357-7.5 7.5s3.358 7.5 7.5 7.5h183.85c4.142 0 7.5-3.357 7.5-7.5s-3.358-7.5-7.501-7.5z"/><path d="m378.229 137.382h-132.331c-4.142 0-7.5 3.357-7.5 7.5s3.358 7.5 7.5 7.5h132.331c4.142 0 7.5-3.357 7.5-7.5s-3.357-7.5-7.5-7.5z"/><path d="m112.557 424.269h-72.732c-4.142 0-7.5 3.357-7.5 7.5v40.406c0 4.143 3.358 7.5 7.5 7.5h72.732c4.142 0 7.5-3.357 7.5-7.5v-40.406c0-4.143-3.358-7.5-7.5-7.5zm-7.5 40.406h-57.732v-25.406h57.732z"/><path d="m112.557 359.618h-72.732c-4.142 0-7.5 3.357-7.5 7.5s3.358 7.5 7.5 7.5h72.732c4.142 0 7.5-3.357 7.5-7.5s-3.358-7.5-7.5-7.5z"/><path d="m112.557 391.943h-72.732c-4.142 0-7.5 3.357-7.5 7.5s3.358 7.5 7.5 7.5h72.732c4.142 0 7.5-3.357 7.5-7.5s-3.358-7.5-7.5-7.5z"/></g></g></svg>