<svg id="Filled" height="512" viewBox="0 0 512 512" width="512" xmlns="http://www.w3.org/2000/svg"><path d="m328 40h64v128h-64z" fill="#f7cc38"/><path d="m208 472a24 24 0 0 0 0-48c-.52 0-1 .12-1.517.153a23.888 23.888 0 0 0 -38.648-25.788 23.819 23.819 0 0 0 -39.835-16.136 23.819 23.819 0 0 0 -39.835 16.136 23.858 23.858 0 0 0 -38.648 25.788c-.512-.033-1-.153-1.517-.153a24 24 0 0 0 0 48z" fill="#2e9163"/><path d="m464 472a24 24 0 0 0 0-48c-.52 0-1 .12-1.517.153a23.888 23.888 0 0 0 -38.648-25.788 23.819 23.819 0 0 0 -39.835-16.136 23.819 23.819 0 0 0 -39.835 16.136 23.858 23.858 0 0 0 -38.648 25.788c-.512-.033-1-.153-1.517-.153a24 24 0 0 0 0 48z" fill="#2e9163"/><path d="m432 232-176-128-176 128-32-24 208-152 208 152z" fill="#95573a"/><path d="m432 472h-352v-240l176-128 176 128z" fill="#f7cc38"/><path d="m272 280h112v192h-112z" fill="#e9eef2"/><path d="m128 280h96v112h-96z" fill="#dcdee0"/><circle cx="304" cy="368" fill="#95573a" r="8"/><path d="m320 24h80v32h-80z" fill="#95573a"/><path d="m471.982 417.008q.018-.508.018-1.008a32.036 32.036 0 0 0 -32-32v-148l28.8-21.6a8 8 0 0 0 -.08-12.859l-68.72-50.219v-87.322a8 8 0 0 0 8-8v-32a8 8 0 0 0 -8-8h-80a8 8 0 0 0 -8 8v32a8 8 0 0 0 8 8v28.861l-59.28-43.32a8 8 0 0 0 -9.44 0l-208 152a8 8 0 0 0 -.08 12.859l28.8 21.6v148a32.036 32.036 0 0 0 -32 32q0 .5.018 1.008a32 32 0 0 0 7.982 62.992h416a32 32 0 0 0 7.982-62.992zm-143.982-385.008h64v16h-64zm8 72v-40h48v75.63l-48.757-35.63zm-80-38.092 194.555 142.176-18.628 13.971-171.221-124.525a8 8 0 0 0 -9.412 0l-171.221 124.525-18.628-13.971zm-224 382.092a16.019 16.019 0 0 1 15.76-16h.019c.409.057.818.106 1.235.133a8 8 0 0 0 8.023-10.716 15.727 15.727 0 0 1 -1.037-5.417 16.019 16.019 0 0 1 16-16v64h-24a16.019 16.019 0 0 1 -16-16zm344 16h-96v-176h96zm16 0v-184a8 8 0 0 0 -8-8h-112a8 8 0 0 0 -8 8v184h-176v-227.926l168-122.182 168 122.182v227.926zm72 0h-24v-64a16.019 16.019 0 0 1 16 16 15.727 15.727 0 0 1 -1.037 5.421 8 8 0 0 0 8.023 10.716c.417-.027.826-.076 1.235-.133h.019a16 16 0 0 1 -.24 32z"/><path d="m224 272h-96a8 8 0 0 0 -8 8v112a8 8 0 0 0 8 8h96a8 8 0 0 0 8-8v-112a8 8 0 0 0 -8-8zm-8 56h-32v-40h32zm-48-40v40h-32v-40zm-32 56h32v40h-32zm48 40v-40h32v40z"/><circle cx="304" cy="368" r="8" transform="matrix(.383 -.924 .924 .383 -152.323 508.032)"/></svg>