<?xml version="1.0" encoding="iso-8859-1"?>
<!-- Generator: Adobe Illustrator 19.0.0, SVG Export Plug-In . SVG Version: 6.00 Build 0)  -->
<svg version="1.1" id="Capa_1" xmlns="http://www.w3.org/2000/svg" xmlns:xlink="http://www.w3.org/1999/xlink" x="0px" y="0px"
	 viewBox="0 0 512 512" style="enable-background:new 0 0 512 512;" xml:space="preserve">
<polygon style="fill:#FBDF97;" points="355.722,503.969 503.969,355.722 503.969,503.969 "/>
<polygon style="fill:#FBC640;" points="358.561,358.561 506.808,358.561 358.561,506.808 "/>
<polygon style="fill:#FBDF97;" points="8.031,503.969 8.031,7.321 503.969,7.321 503.969,362.576 362.576,362.576 362.576,503.969 
	"/>
<path d="M501.961,0H10.039C4.496,0,0,4.496,0,10.039v491.922C0,507.504,4.496,512,10.039,512h491.922
	c5.544,0,10.039-4.496,10.039-10.039V10.039C512,4.496,507.504,0,501.961,0z M20.078,20.078h471.843v330.451H360.568
	c-5.544,0-10.039,4.496-10.039,10.039v131.353H20.078V20.078z M477.723,370.608L370.608,477.723V370.608H477.723z M384.806,491.922
	l107.115-107.115v107.115H384.806z"/>
<path d="M419.634,71.364c5.544,0,10.039-4.496,10.039-10.039s-4.496-10.039-10.039-10.039h-73.687
	c-5.544,0-10.039,4.496-10.039,10.039s4.496,10.039,10.039,10.039H419.634z"/>
<path d="M445.947,71.364c12.919,0,12.941-20.078,0-20.078C433.028,51.285,433.006,71.364,445.947,71.364z"/>
<g>
</g>
<g>
</g>
<g>
</g>
<g>
</g>
<g>
</g>
<g>
</g>
<g>
</g>
<g>
</g>
<g>
</g>
<g>
</g>
<g>
</g>
<g>
</g>
<g>
</g>
<g>
</g>
<g>
</g>
</svg>
