<svg id="Filled" height="512" viewBox="0 0 512 512" width="512" xmlns="http://www.w3.org/2000/svg"><path d="m80 346.667v-266.667h400v300 100h-400v-66.667" fill="#d0d2d4"/><path d="m80 80h400a0 0 0 0 1 0 0v300a36 36 0 0 1 -36 36h-364a0 0 0 0 1 0 0v-336a0 0 0 0 1 0 0z" fill="#ffd33a"/><path d="m448 416a32 32 0 0 1 -32-32v-32h-400v32a32 32 0 0 0 32 32z" fill="#f2c837"/><path d="m488 72h-248.581a55.992 55.992 0 0 0 -110.838 0h-40.581a8 8 0 0 0 -8 8v264h-56a8 8 0 0 0 -8 8v32a40.045 40.045 0 0 0 40 40h24v56a8 8 0 0 0 8 8h400a8 8 0 0 0 8-8v-400a8 8 0 0 0 -8-8zm-304-32a40.067 40.067 0 0 1 39.2 32h-78.39a40.067 40.067 0 0 1 39.19-32zm-88 48h32v80a32 32 0 0 0 64 0v-56a8 8 0 0 0 -16 0v56a16 16 0 0 1 -32 0v-80h336v296a24 24 0 0 1 -48 0v-32a8 8 0 0 0 -8-8h-328zm-64 296v-24h384v24a39.792 39.792 0 0 0 8.019 24h-368.019a24.028 24.028 0 0 1 -24-24zm64 88v-48h360a39.788 39.788 0 0 0 24-8.022v56.022z"/><path d="m360 248h-128a8 8 0 0 0 0 16h128a8 8 0 0 0 0-16z"/><path d="m344 296h-208a8 8 0 0 0 0 16h208a8 8 0 0 0 0-16z"/><path d="m232 168h144a8 8 0 0 0 0-16h-144a8 8 0 0 0 0 16z"/><path d="m272 208a8 8 0 0 0 8 8h160a8 8 0 0 0 0-16h-160a8 8 0 0 0 -8 8z"/><path d="m448 256a8 8 0 0 0 -8-8h-48a8 8 0 0 0 0 16h48a8 8 0 0 0 8-8z"/><path d="m232 216h16a8 8 0 0 0 0-16h-16a8 8 0 0 0 0 16z"/><path d="m136 264h64a8 8 0 0 0 0-16h-64a8 8 0 0 0 0 16z"/></svg>