<svg height="496pt" viewBox="0 0 496 496" width="496pt" xmlns="http://www.w3.org/2000/svg"><g fill="#f0bc5e"><path d="m216 216h72v64h-72zm0 0"/><path d="m224 72h128v72h-128zm0 0"/><path d="m224 328h128v72h-128zm0 0"/><path d="m136 176c-39.703125 0-72-32.296875-72-72s32.296875-72 72-72 72 32.296875 72 72-32.296875 72-72 72zm0 0"/><path d="m136 416c-39.703125 0-72-32.296875-72-72s32.296875-72 72-72 72 32.296875 72 72-32.296875 72-72 72zm0 0"/></g><path d="m479.976562 248c9.71875-7.304688 16.023438-18.929688 16.023438-32 0-7.390625-2.054688-14.296875-5.558594-20.238281-24.363281-113.523438-126.058594-195.761719-242.441406-195.761719h-216v126.191406c-20.902344 37-32 79.046875-32 121.808594 0 136.742188 111.257812 248 248 248h136v-40.671875c54.128906-35.601563 92.71875-91.703125 106.335938-154.878906 3.585937-5.992188 5.664062-12.976563 5.664062-20.449219 0-13.070312-6.304688-24.695312-16.023438-32zm.023438 32c0 13.230469-10.769531 24-23.238281 24.046875l-8.066407-.320313-1.335937 6.617188c-2.992187 14.863281-16.183594 25.65625-31.359375 25.65625-12.34375 0-23.289062-7.199219-28.585938-17.863281 16.472657-4.945313 28.585938-20.074219 28.585938-38.136719v-8h-16v8c0 13.230469-10.769531 24-24 24s-24-10.769531-24-24 10.769531-24 24-24h80c13.230469 0 24 10.769531 24 24zm-143.136719-8h-16.863281v-48h16.863281c1.992188 9.742188 7.480469 18.230469 15.160157 24-7.679688 5.769531-13.167969 14.257812-15.160157 24zm-128.863281-6.945312-25.574219-17.054688 25.574219-17.054688zm16-9.054688h64v-16h-64v-16h80v48h-80zm232-16h-80c-13.230469 0-24-10.769531-24-24s10.769531-24 24-24c10.960938 0 20.519531 7.398438 23.246094 17.992188l15.496094-3.984376c-3.550782-13.824218-14.117188-24.289062-27.277344-28.230468 5.304687-10.617188 16.222656-17.777344 28.535156-17.777344 15.175781 0 28.367188 10.792969 31.359375 25.664062l1.335937 6.617188 6.746094-.191406c.4375-.027344.878906-.074219.558594-.089844 13.230469 0 24 10.769531 24 24s-10.769531 24-24 24zm13.296875-61.65625c-2.542969-.902344-5.167969-1.617188-7.921875-1.984375-6.574219-19.078125-24.75-32.359375-45.375-32.359375-12.175781 0-23.40625 4.726562-32 12.449219v-96.089844c39.609375 28.730469 70.105469 69.730469 85.296875 117.984375zm-437.296875-14.839844v169c-10.289062-26.207031-16-54.695312-16-84.503906 0-29.039062 5.535156-57.703125 16-84.496094zm216 316.496094c-85.121094 0-159.632812-46.105469-200-114.632812v-349.367188h200c43.433594 0 84.65625 12.273438 120 33.726562v127.082032c-15.648438 3.191406-28 15.542968-31.191406 31.191406h-123.234375l-60 40 60 40h123.234375c3.191406 15.648438 15.542968 28 31.191406 31.191406v160.808594zm136-44.105469v-96.34375c8.59375 7.722657 19.824219 12.449219 32 12.449219 20.625 0 38.800781-13.28125 45.375-32.359375 2.738281-.367187 5.351562-1.074219 7.882812-1.96875-14.921874 47.238281-44.992187 88.976563-85.257812 118.222656zm0 0"/><path d="m136 144c17.648438 0 32-14.351562 32-32h-16c0 8.824219-7.175781 16-16 16s-16-7.175781-16-16h-16c0 17.648438 14.351562 32 32 32zm0 0"/><path d="m120 88c0 4.417969-3.582031 8-8 8s-8-3.582031-8-8 3.582031-8 8-8 8 3.582031 8 8zm0 0"/><path d="m168 88c0 4.417969-3.582031 8-8 8s-8-3.582031-8-8 3.582031-8 8-8 8 3.582031 8 8zm0 0"/><path d="m136 352c-17.648438 0-32 14.351562-32 32h16c0-8.824219 7.175781-16 16-16s16 7.175781 16 16h16c0-17.648438-14.351562-32-32-32zm0 0"/><path d="m120 328c0 4.417969-3.582031 8-8 8s-8-3.582031-8-8 3.582031-8 8-8 8 3.582031 8 8zm0 0"/><path d="m168 328c0 4.417969-3.582031 8-8 8s-8-3.582031-8-8 3.582031-8 8-8 8 3.582031 8 8zm0 0"/><path d="m224 64h128v16h-128zm0 0"/><path d="m224 96h128v16h-128zm0 0"/><path d="m224 128h96v16h-96zm0 0"/><path d="m336 128h16v16h-16zm0 0"/><path d="m224 320h128v16h-128zm0 0"/><path d="m224 352h128v16h-128zm0 0"/><path d="m224 384h96v16h-96zm0 0"/><path d="m336 384h16v16h-16zm0 0"/></svg>