<svg id="Layer_35" enable-background="new 0 0 64 64" height="512" viewBox="0 0 64 64" width="512" xmlns="http://www.w3.org/2000/svg"><path d="m14 6h46v40h-46z" fill="#ffeaa7"/><path d="m62 3v2c0 .55-.45 1-1 1h-1-46-1c-.55 0-1-.45-1-1v-2c0-.55.45-1 1-1h48c.55 0 1 .45 1 1z" fill="#969faa"/><path d="m40 28h14v12h-14z" fill="#cf9e76"/><path d="m40 12h14v12h-14z" fill="#cf9e76"/><path d="m20 12h14v12h-14z" fill="#cf9e76"/><g fill="#ecc19c"><path d="m24 12h6v4h-6z"/><path d="m44 12h6v4h-6z"/><path d="m44 20h6v4h-6z"/><path d="m44 28h6v4h-6z"/><path d="m44 36h6v4h-6z"/></g><path d="m15 42h9c1.66 0 3-1.34 3-3v-8.5c0-.69.28-1.32.73-1.77s1.08-.73 1.77-.73c1.38 0 2.5 1.12 2.5 2.5v10.66c0 1.86-.73 3.57-1.95 4.84-.99 1.04-2.3 1.77-3.8 2.05l-3.2.58c-1.19.21-2.05 1.25-2.05 2.46v10.91h-14-5v-10c0-5.52 4.48-10 10-10h2z" fill="#48cfad"/><circle cx="14" cy="36" fill="#f0d0b4" r="6"/><path d="m35 11h-16v14h16zm-10 2h4v2h-4zm8 10h-12v-10h2v4h8v-4h2z"/><path d="m55 11h-16v14h16zm-10 2h4v2h-4zm4 10h-4v-2h4zm4 0h-2v-4h-8v4h-2v-10h2v4h8v-4h2z"/><path d="m55 27h-16v14h16zm-10 2h4v2h-4zm4 10h-4v-2h4zm4 0h-2v-4h-8v4h-2v-10h2v4h8v-4h2z"/><path d="m61 1h-48c-1.103 0-2 .897-2 2v2c0 1.103.897 2 2 2v22.08c-3.386.488-6 3.401-6 6.92 0 2.123.954 4.025 2.452 5.31-4.839 1.154-8.452 5.503-8.452 10.69v11h21v-11.913c0-.726.518-1.347 1.231-1.477l3.199-.582c1.558-.283 2.935-1.01 4.026-2.028h30.544v-40c1.103 0 2-.897 2-2v-2c0-1.103-.897-2-2-2zm-52 35c0-2.757 2.243-5 5-5s5 2.243 5 5-2.243 5-5 5-5-2.243-5-5zm17.073 11.062-3.199.581c-1.665.302-2.874 1.751-2.874 3.444v9.913h-12v-13h-2v13h-3v-9c0-4.963 4.037-9 9-9h12c2.206 0 4-1.794 4-4v-8.5c0-.827.673-1.5 1.5-1.5s1.5.673 1.5 1.5v10.658c0 2.902-2.072 5.384-4.927 5.904zm32.927-2.062h-26.988c.629-1.147.988-2.457.988-3.842v-10.658c0-1.93-1.57-3.5-3.5-3.5s-3.5 1.57-3.5 3.5v8.5c0 1.103-.897 2-2 2h-5.111c1.301-1.272 2.111-3.042 2.111-5 0-3.519-2.614-6.432-6-6.92v-22.08h44zm2-40h-48l-.002-2h.002 48z"/></svg>