<?xml version="1.0" encoding="iso-8859-1"?>
<!-- Generator: Adobe Illustrator 19.0.0, SVG Export Plug-In . SVG Version: 6.00 Build 0)  -->
<svg version="1.1" id="Capa_1" xmlns="http://www.w3.org/2000/svg" xmlns:xlink="http://www.w3.org/1999/xlink" x="0px" y="0px"
	 viewBox="0 0 512 512" style="enable-background:new 0 0 512 512;" xml:space="preserve">
<g>
	<path style="fill:#FFE100;" d="M418.133,332.8V179.2c-47.13,0-85.333-38.204-85.333-85.333H179.2
		c0,47.13-38.204,85.333-85.333,85.333v153.6c47.13,0,85.333,38.204,85.333,85.333h153.6C332.8,371.004,371.004,332.8,418.133,332.8
		"/>
	<g>
		<path style="fill:#FDCC00;" d="M290.133,256c0,18.85-15.283,34.133-34.133,34.133c-18.85,0-34.133-15.283-34.133-34.133
			S237.15,221.867,256,221.867C274.85,221.867,290.133,237.15,290.133,256"/>
		<path style="fill:#FDCC00;" d="M179.2,418.133c0,47.13-38.204,85.333-85.333,85.333S8.533,465.263,8.533,418.133
			S46.737,332.8,93.867,332.8S179.2,371.004,179.2,418.133"/>
		<path style="fill:#FDCC00;" d="M503.467,418.133c0,47.13-38.204,85.333-85.333,85.333S332.8,465.263,332.8,418.133
			s38.204-85.333,85.333-85.333S503.467,371.004,503.467,418.133"/>
		<path style="fill:#FDCC00;" d="M179.2,93.867c0,47.13-38.204,85.333-85.333,85.333S8.533,140.996,8.533,93.867
			S46.737,8.533,93.867,8.533S179.2,46.737,179.2,93.867"/>
		<path style="fill:#FDCC00;" d="M503.467,93.867c0,47.13-38.204,85.333-85.333,85.333S332.8,140.996,332.8,93.867
			s38.204-85.333,85.333-85.333S503.467,46.737,503.467,93.867"/>
	</g>
	<g>
		<path style="fill:#FFA800;" d="M418.133,332.8c-4.361,0-8.619,0.435-12.8,1.067c41.037,6.187,72.533,41.498,72.533,84.267
			s-31.497,78.08-72.533,84.267c4.181,0.632,8.439,1.067,12.8,1.067c47.13,0,85.333-38.204,85.333-85.333
			S465.263,332.8,418.133,332.8"/>
		<path style="fill:#FFA800;" d="M418.133,8.533c-4.361,0-8.619,0.435-12.8,1.067c41.037,6.187,72.533,41.498,72.533,84.267
			s-31.497,78.08-72.533,84.267c4.181,0.631,8.439,1.067,12.8,1.067c47.13,0,85.333-38.204,85.333-85.333
			S465.263,8.533,418.133,8.533"/>
	</g>
	<g>
		<path style="fill:#FFFFFF;" d="M93.867,332.8c4.361,0,8.619,0.435,12.8,1.067c-41.037,6.187-72.533,41.498-72.533,84.267
			s31.497,78.08,72.533,84.267c-4.181,0.632-8.439,1.067-12.8,1.067c-47.13,0-85.333-38.204-85.333-85.333
			S46.737,332.8,93.867,332.8"/>
		<path style="fill:#FFFFFF;" d="M93.867,8.533c4.361,0,8.619,0.435,12.8,1.067C65.63,15.787,34.133,51.098,34.133,93.867
			s31.497,78.08,72.533,84.267c-4.181,0.631-8.439,1.067-12.8,1.067c-47.13,0-85.333-38.204-85.333-85.333
			S46.737,8.533,93.867,8.533"/>
	</g>
	<g>
		<path style="fill:#63D3FD;" d="M114.717,472.3c-3.183-1.57-5.188-4.787-5.188-8.303v-9.549c0.691-0.777,1.485-1.783,2.33-2.961
			c3.354-4.685,5.888-9.839,7.646-15.241c3.157-0.964,5.487-3.849,5.487-7.279v-10.189c0-2.244-1.007-4.25-2.577-5.649v-14.729
			c0,0,3.055-22.938-28.348-22.938s-28.339,22.938-28.339,22.938v14.729c-1.57,1.399-2.577,3.405-2.577,5.649v10.189
			c0,2.688,1.425,5.052,3.558,6.417c2.577,11.085,9.318,19.063,9.318,19.063v9.31c0,3.396-1.869,6.528-4.89,8.149l-22.989,12.399
			c-1.57,0.845-2.97,1.911-4.241,3.089c14.054,10.069,31.275,16.068,49.963,16.068c18.645,0,35.849-5.982,49.886-16.017
			c-1.323-1.161-2.799-2.176-4.429-2.978L114.717,472.3z"/>
		<path style="fill:#63D3FD;" d="M438.984,472.3c-3.183-1.57-5.188-4.787-5.188-8.303v-9.549c0.691-0.777,1.485-1.783,2.33-2.961
			c3.354-4.685,5.888-9.839,7.646-15.241c3.157-0.964,5.487-3.849,5.487-7.279v-10.189c0-2.244-1.007-4.25-2.577-5.649v-14.729
			c0,0,3.055-22.938-28.348-22.938s-28.339,22.938-28.339,22.938v14.729c-1.57,1.399-2.577,3.405-2.577,5.649v10.189
			c0,2.688,1.425,5.052,3.558,6.417c2.577,11.085,9.318,19.063,9.318,19.063v9.31c0,3.396-1.869,6.528-4.89,8.149l-22.989,12.399
			c-1.57,0.845-2.97,1.911-4.241,3.089c14.054,10.069,31.275,16.068,49.963,16.068c18.645,0,35.849-5.982,49.886-16.017
			c-1.323-1.161-2.799-2.176-4.429-2.978L438.984,472.3z"/>
		<path style="fill:#63D3FD;" d="M114.717,148.033c-3.183-1.57-5.188-4.787-5.188-8.303v-9.549c0.691-0.777,1.485-1.783,2.33-2.961
			c3.354-4.685,5.888-9.839,7.646-15.241c3.157-0.964,5.487-3.849,5.487-7.279V94.512c0-2.244-1.007-4.25-2.577-5.649V74.134
			c0,0,3.055-22.938-28.348-22.938S65.727,74.134,65.727,74.134v14.729c-1.57,1.399-2.577,3.405-2.577,5.649v10.189
			c0,2.688,1.425,5.052,3.558,6.417c2.577,11.085,9.318,19.063,9.318,19.063v9.31c0,3.396-1.869,6.528-4.89,8.149l-22.989,12.399
			c-1.57,0.845-2.97,1.911-4.241,3.089c14.054,10.069,31.275,16.068,49.963,16.068c18.645,0,35.849-5.982,49.886-16.017
			c-1.323-1.161-2.799-2.176-4.429-2.978L114.717,148.033z"/>
		<path style="fill:#63D3FD;" d="M438.984,148.033c-3.183-1.57-5.188-4.787-5.188-8.303v-9.549c0.691-0.777,1.485-1.783,2.33-2.961
			c3.354-4.685,5.888-9.839,7.646-15.241c3.157-0.964,5.487-3.849,5.487-7.279V94.512c0-2.244-1.007-4.25-2.577-5.649V74.134
			c0,0,3.055-22.938-28.348-22.938s-28.339,22.938-28.339,22.938v14.729c-1.57,1.399-2.577,3.405-2.577,5.649v10.189
			c0,2.688,1.425,5.052,3.558,6.417c2.577,11.085,9.318,19.063,9.318,19.063v9.31c0,3.396-1.869,6.528-4.89,8.149l-22.989,12.399
			c-1.57,0.845-2.97,1.911-4.241,3.089c14.054,10.069,31.275,16.068,49.963,16.068c18.645,0,35.849-5.982,49.886-16.017
			c-1.323-1.161-2.799-2.176-4.429-2.978L438.984,148.033z"/>
	</g>
	<g>
		<path d="M93.867,341.333c-42.351,0-76.8,34.458-76.8,76.8s34.449,76.8,76.8,76.8s76.8-34.458,76.8-76.8
			S136.218,341.333,93.867,341.333 M93.867,512C42.112,512,0,469.888,0,418.133s42.112-93.867,93.867-93.867
			s93.867,42.112,93.867,93.867S145.621,512,93.867,512"/>
		<path d="M71.683,428.917v0.051V428.917z M60.488,487.353c20.497,9.856,45.491,9.984,66.082,0.324l-15.633-7.731
			c-6.135-3.029-9.941-9.139-9.941-15.949v-9.549c0-2.099,0.768-4.122,2.159-5.683c0.529-0.597,1.126-1.365,1.775-2.27
			c2.756-3.84,4.941-8.183,6.46-12.894c0.802-2.458,2.671-4.412,5.069-5.333v-9.489c-1.818-1.621-2.586-3.217-2.586-5.649v-14.737
			c0-0.375,0.026-0.751,0.077-1.126c0-0.06,0.41-4.608-2.748-8.098c-3.072-3.379-8.994-5.171-17.135-5.171
			s-14.063,1.792-17.135,5.171c-3.157,3.49-2.748,8.047-2.731,8.235c0.026,0.273,0.06,0.717,0.06,0.99v14.737
			c0,2.423-1.033,4.736-2.842,6.357l0.247,8.951c1.69,1.203,2.884,2.987,3.354,5.018c2.048,8.806,7.501,15.437,7.552,15.505
			c1.271,1.536,1.997,3.49,1.997,5.487v9.31c0,6.545-3.593,12.544-9.378,15.659L60.488,487.353z M93.87,511.997
			c-19.806,0-38.801-6.101-54.929-17.664c-2.082-1.493-3.379-3.831-3.55-6.383c-0.162-2.551,0.828-5.043,2.688-6.793
			c1.877-1.749,3.908-3.217,6.025-4.361l22.989-12.399l0.299-7.27c-2.321-3.337-6.016-9.404-8.252-16.981
			c-2.884-2.978-4.523-6.955-4.523-11.179v-10.189c0-3.089,0.905-6.101,2.577-8.678V398.82c-0.247-2.842-0.435-12.518,6.793-20.762
			c6.451-7.381,16.58-11.127,30.08-11.127c13.508,0,23.637,3.746,30.089,11.136c7.219,8.235,7.031,17.911,6.784,20.753v11.273
			c1.673,2.577,2.586,5.589,2.586,8.687v10.189c0,5.478-2.731,10.411-7.125,13.346c-1.954,5.069-4.506,9.813-7.603,14.14
			c-0.247,0.35-0.495,0.683-0.734,1.007v6.537l0.435,0.649l24.619,12.169c2.219,1.101,4.326,2.517,6.255,4.207
			c1.971,1.715,3.038,4.241,2.91,6.844c-0.128,2.603-1.442,5.009-3.567,6.519C132.603,505.905,113.633,511.997,93.87,511.997
			L93.87,511.997z"/>
		<path d="M418.133,341.333c-42.351,0-76.8,34.458-76.8,76.8s34.449,76.8,76.8,76.8s76.8-34.458,76.8-76.8
			S460.484,341.333,418.133,341.333 M418.133,512c-51.755,0-93.867-42.112-93.867-93.867s42.112-93.867,93.867-93.867
			S512,366.379,512,418.133S469.888,512,418.133,512"/>
		<path d="M395.95,428.917v0.051V428.917z M384.754,487.353c20.497,9.856,45.483,9.984,66.082,0.324l-15.633-7.731
			c-6.135-3.029-9.941-9.139-9.941-15.949v-9.549c0-2.099,0.768-4.122,2.159-5.683c0.529-0.597,1.126-1.365,1.775-2.27
			c2.756-3.84,4.941-8.183,6.46-12.894c0.802-2.458,2.671-4.412,5.069-5.333v-9.489c-1.818-1.621-2.586-3.217-2.586-5.649v-14.737
			c0-0.375,0.026-0.751,0.077-1.126c0-0.06,0.41-4.608-2.748-8.098c-3.072-3.379-8.994-5.171-17.135-5.171
			s-14.063,1.792-17.135,5.171c-3.157,3.49-2.748,8.047-2.731,8.235c0.026,0.273,0.06,0.717,0.06,0.99v14.737
			c0,2.423-1.033,4.736-2.842,6.357l0.247,8.951c1.69,1.203,2.884,2.987,3.354,5.018c2.048,8.806,7.501,15.437,7.552,15.505
			c1.271,1.536,1.997,3.49,1.997,5.487v9.31c0,6.545-3.592,12.544-9.378,15.659L384.754,487.353z M418.137,511.997
			c-19.806,0-38.801-6.101-54.929-17.664c-2.082-1.493-3.379-3.831-3.55-6.383c-0.162-2.551,0.828-5.043,2.688-6.793
			c1.877-1.749,3.908-3.217,6.025-4.361l22.989-12.399l0.299-7.27c-2.321-3.337-6.016-9.404-8.252-16.981
			c-2.884-2.978-4.523-6.955-4.523-11.179v-10.189c0-3.089,0.905-6.101,2.577-8.678V398.82c-0.247-2.842-0.435-12.518,6.793-20.762
			c6.451-7.381,16.58-11.127,30.08-11.127c13.508,0,23.637,3.746,30.089,11.136c7.219,8.235,7.031,17.911,6.784,20.753v11.273
			c1.673,2.577,2.586,5.589,2.586,8.687v10.189c0,5.478-2.731,10.411-7.125,13.346c-1.954,5.069-4.506,9.813-7.603,14.14
			c-0.247,0.35-0.495,0.683-0.734,1.007v6.537l0.435,0.649l24.619,12.169c2.219,1.101,4.326,2.517,6.255,4.207
			c1.971,1.715,3.038,4.241,2.91,6.844s-1.442,5.009-3.567,6.519C456.87,505.905,437.9,511.997,418.137,511.997L418.137,511.997z"/>
		<path d="M93.867,17.067c-42.351,0-76.8,34.458-76.8,76.8s34.449,76.8,76.8,76.8s76.8-34.458,76.8-76.8
			S136.218,17.067,93.867,17.067 M93.867,187.733C42.112,187.733,0,145.621,0,93.867S42.112,0,93.867,0s93.867,42.112,93.867,93.867
			S145.621,187.733,93.867,187.733"/>
		<path d="M71.683,104.65v0.051V104.65z M60.488,163.087c20.497,9.856,45.491,9.984,66.082,0.324l-15.633-7.731
			c-6.135-3.029-9.941-9.139-9.941-15.949v-9.549c0-2.099,0.768-4.122,2.159-5.683c0.529-0.597,1.126-1.365,1.775-2.27
			c2.756-3.84,4.941-8.183,6.46-12.894c0.802-2.458,2.671-4.412,5.069-5.333v-9.489c-1.818-1.621-2.586-3.217-2.586-5.649V74.127
			c0-0.375,0.026-0.751,0.077-1.126c0-0.06,0.41-4.608-2.748-8.098c-3.072-3.379-8.994-5.171-17.135-5.171
			s-14.063,1.792-17.135,5.171c-3.157,3.49-2.748,8.047-2.731,8.235c0.026,0.273,0.06,0.717,0.06,0.99v14.737
			c0,2.423-1.033,4.736-2.842,6.357l0.247,8.951c1.69,1.203,2.884,2.987,3.354,5.018c2.048,8.806,7.501,15.437,7.552,15.505
			c1.271,1.536,1.997,3.49,1.997,5.487v9.31c0,6.545-3.593,12.544-9.378,15.659L60.488,163.087z M93.87,187.731
			c-19.806,0-38.801-6.101-54.929-17.664c-2.082-1.493-3.379-3.831-3.55-6.383c-0.162-2.551,0.828-5.043,2.688-6.793
			c1.877-1.749,3.908-3.217,6.025-4.361l22.989-12.399l0.299-7.27c-2.321-3.337-6.016-9.404-8.252-16.981
			c-2.884-2.978-4.523-6.955-4.523-11.179V94.513c0-3.089,0.905-6.101,2.577-8.678V74.553c-0.247-2.842-0.435-12.518,6.793-20.762
			c6.451-7.381,16.58-11.127,30.08-11.127c13.508,0,23.637,3.746,30.089,11.136c7.219,8.235,7.031,17.911,6.784,20.753v11.273
			c1.673,2.577,2.586,5.589,2.586,8.687v10.189c0,5.478-2.731,10.411-7.125,13.346c-1.954,5.069-4.506,9.813-7.603,14.14
			c-0.247,0.35-0.495,0.683-0.734,1.007v6.537l0.435,0.649l24.619,12.169c2.219,1.101,4.326,2.517,6.255,4.207
			c1.971,1.715,3.038,4.241,2.91,6.844c-0.128,2.603-1.442,5.009-3.567,6.519C132.603,181.638,113.633,187.731,93.87,187.731
			L93.87,187.731z"/>
		<path d="M418.133,17.067c-42.351,0-76.8,34.458-76.8,76.8s34.449,76.8,76.8,76.8s76.8-34.458,76.8-76.8
			S460.484,17.067,418.133,17.067 M418.133,187.733c-51.755,0-93.867-42.112-93.867-93.867S366.379,0,418.133,0
			S512,42.112,512,93.867S469.888,187.733,418.133,187.733"/>
		<path d="M395.95,104.65v0.051V104.65z M384.754,163.087c20.497,9.856,45.483,9.984,66.082,0.324l-15.633-7.731
			c-6.135-3.029-9.941-9.139-9.941-15.949v-9.549c0-2.099,0.768-4.122,2.159-5.683c0.529-0.597,1.126-1.365,1.775-2.27
			c2.756-3.84,4.941-8.183,6.46-12.894c0.802-2.458,2.671-4.412,5.069-5.333v-9.489c-1.818-1.621-2.586-3.217-2.586-5.649V74.127
			c0-0.375,0.026-0.751,0.077-1.126c0-0.06,0.41-4.608-2.748-8.098c-3.072-3.379-8.994-5.171-17.135-5.171
			s-14.063,1.792-17.135,5.171c-3.157,3.49-2.748,8.047-2.731,8.235c0.026,0.273,0.06,0.717,0.06,0.99v14.737
			c0,2.423-1.033,4.736-2.842,6.357l0.247,8.951c1.69,1.203,2.884,2.987,3.354,5.018c2.048,8.806,7.501,15.437,7.552,15.505
			c1.271,1.536,1.997,3.49,1.997,5.487v9.31c0,6.545-3.592,12.544-9.378,15.659L384.754,163.087z M418.137,187.731
			c-19.806,0-38.801-6.101-54.929-17.664c-2.082-1.493-3.379-3.831-3.55-6.383c-0.162-2.551,0.828-5.043,2.688-6.793
			c1.877-1.749,3.908-3.217,6.025-4.361l22.989-12.399l0.299-7.27c-2.321-3.337-6.016-9.404-8.252-16.981
			c-2.884-2.978-4.523-6.955-4.523-11.179V94.513c0-3.089,0.905-6.101,2.577-8.678V74.553c-0.247-2.842-0.435-12.518,6.793-20.762
			c6.451-7.381,16.58-11.127,30.08-11.127c13.508,0,23.637,3.746,30.089,11.136c7.219,8.235,7.031,17.911,6.784,20.753v11.273
			c1.673,2.577,2.586,5.589,2.586,8.687v10.189c0,5.478-2.731,10.411-7.125,13.346c-1.954,5.069-4.506,9.813-7.603,14.14
			c-0.247,0.35-0.495,0.683-0.734,1.007v6.537l0.435,0.649l24.619,12.169c2.219,1.101,4.326,2.517,6.255,4.207
			c1.971,1.715,3.038,4.241,2.91,6.844c-0.128,2.603-1.442,5.009-3.567,6.519C456.87,181.638,437.9,187.731,418.137,187.731
			L418.137,187.731z"/>
		<path d="M187.35,409.6h137.301c4.062-44.971,39.979-80.879,84.949-84.949V187.349c-44.971-4.07-80.887-39.979-84.949-84.949
			H187.35c-4.07,44.971-39.987,80.879-84.949,84.949v137.301C147.363,328.721,183.28,364.629,187.35,409.6 M332.801,426.667h-153.6
			c-4.719,0-8.533-3.823-8.533-8.533c0-42.342-34.449-76.8-76.8-76.8c-4.719,0-8.533-3.823-8.533-8.533V179.2
			c0-4.71,3.814-8.533,8.533-8.533c42.351,0,76.8-34.458,76.8-76.8c0-4.71,3.814-8.533,8.533-8.533h153.6
			c4.719,0,8.533,3.823,8.533,8.533c0,42.342,34.449,76.8,76.8,76.8c4.719,0,8.533,3.823,8.533,8.533v153.6
			c0,4.71-3.814,8.533-8.533,8.533c-42.351,0-76.8,34.458-76.8,76.8C341.334,422.844,337.52,426.667,332.801,426.667"/>
		<path d="M256,230.4c-4.719,0-8.533-3.823-8.533-8.533v-128c0-4.71,3.814-8.533,8.533-8.533c4.719,0,8.533,3.823,8.533,8.533v128
			C264.533,226.577,260.719,230.4,256,230.4"/>
		<path d="M256,426.667c-4.719,0-8.533-3.823-8.533-8.533v-128c0-4.71,3.814-8.533,8.533-8.533c4.719,0,8.533,3.823,8.533,8.533v128
			C264.533,422.844,260.719,426.667,256,426.667"/>
		<path d="M221.867,264.533h-128c-4.719,0-8.533-3.823-8.533-8.533c0-4.71,3.814-8.533,8.533-8.533h128
			c4.719,0,8.533,3.823,8.533,8.533C230.4,260.71,226.586,264.533,221.867,264.533"/>
		<path d="M418.133,264.533h-128c-4.719,0-8.533-3.823-8.533-8.533c0-4.71,3.814-8.533,8.533-8.533h128
			c4.719,0,8.533,3.823,8.533,8.533C426.667,260.71,422.852,264.533,418.133,264.533"/>
		<path d="M256,230.4c-14.114,0-25.6,11.486-25.6,25.6c0,14.114,11.486,25.6,25.6,25.6c14.114,0,25.6-11.486,25.6-25.6
			C281.6,241.886,270.114,230.4,256,230.4 M256,298.667c-23.526,0-42.667-19.14-42.667-42.667s19.14-42.667,42.667-42.667
			c23.526,0,42.667,19.14,42.667,42.667S279.526,298.667,256,298.667"/>
	</g>
</g>
<g>
</g>
<g>
</g>
<g>
</g>
<g>
</g>
<g>
</g>
<g>
</g>
<g>
</g>
<g>
</g>
<g>
</g>
<g>
</g>
<g>
</g>
<g>
</g>
<g>
</g>
<g>
</g>
<g>
</g>
</svg>
